<svg width="456" height="456" viewBox="0 0 456 456" fill="none" xmlns="http://www.w3.org/2000/svg">
<rect width="456" height="456" fill="#292D33"/>
<path d="M227.92 253.189C242.656 253.189 254.603 241.241 254.603 226.502C254.603 211.763 242.656 199.814 227.92 199.814C213.183 199.814 201.237 211.763 201.237 226.502C201.237 241.241 213.183 253.189 227.92 253.189Z" fill="#B84297"/>
<path d="M227.919 68.0001C203.677 67.9773 179.749 73.4817 157.953 84.0949V118.466C177.373 106.067 199.736 99.0484 222.757 98.1287C245.778 97.209 268.63 102.421 288.976 113.232C309.323 124.042 326.433 140.064 338.559 159.657C350.684 179.251 357.388 201.714 357.987 224.749V224.749V321.428C375.149 297.504 385.383 269.308 387.561 239.944C389.74 210.579 383.779 181.182 370.334 154.986C356.889 128.79 336.482 106.81 311.356 91.4637C286.23 76.117 257.359 67.9982 227.919 68.0001V68.0001Z" fill="white"/>
<path d="M227.917 358.154C194.502 358.153 162.369 345.285 138.187 322.22C114.004 299.155 99.6282 267.664 98.0416 234.281H97.8907V134.762C74.5071 167.447 64.2716 207.734 69.2174 247.619C74.1632 287.504 93.9285 324.07 124.587 350.052C155.245 376.033 194.554 389.53 234.703 387.862C274.853 386.193 312.906 369.481 341.303 341.044V291.786C329.998 311.922 313.536 328.683 293.608 340.348C273.681 352.012 251.007 358.158 227.917 358.154Z" fill="white"/>
<path d="M227.911 269.069C218.243 269.077 208.852 265.84 201.242 259.876V290.474C215.115 296.181 230.455 297.277 244.998 293.601C259.542 289.926 272.519 281.672 282.016 270.058C291.512 258.445 297.026 244.086 297.742 229.099C298.459 214.113 294.341 199.294 285.995 186.827C277.65 174.359 265.52 164.905 251.393 159.858C237.267 154.811 221.893 154.438 207.538 158.795C193.184 163.152 180.61 172.008 171.671 184.056C162.731 196.104 157.901 210.707 157.891 225.71V315.679C166.026 322.085 174.999 327.348 184.56 331.321V225.669C184.56 217.094 187.102 208.711 191.866 201.58C196.629 194.45 203.4 188.893 211.321 185.611C219.243 182.329 227.959 181.471 236.369 183.144C244.778 184.817 252.502 188.946 258.565 195.01C264.628 201.074 268.757 208.799 270.43 217.21C272.102 225.621 271.244 234.339 267.963 242.262C264.682 250.184 259.125 256.956 251.996 261.72C244.867 266.485 236.485 269.028 227.911 269.028V269.069Z" fill="white"/>
<path d="M141.23 299.571V226.506C141.238 208.21 147.035 190.385 157.791 175.586C168.546 160.786 183.708 149.769 201.106 144.114C218.503 138.459 237.244 138.455 254.643 144.103C272.043 149.751 287.21 160.761 297.971 175.557C308.733 190.352 314.537 208.174 314.553 226.47C314.569 244.767 308.796 262.599 298.06 277.413C287.325 292.227 272.177 303.264 254.787 308.942C237.397 314.62 218.657 314.649 201.25 309.025V336.741C220.879 341.495 241.421 340.918 260.752 335.072C280.084 329.225 297.503 318.32 311.209 303.484C324.916 288.649 334.411 270.421 338.715 250.685C343.018 230.95 341.973 210.423 335.687 191.227C329.402 172.03 318.104 154.862 302.962 141.495C287.819 128.129 269.382 119.051 249.557 115.198C229.732 111.346 209.237 112.86 190.193 119.583C171.148 126.307 154.245 137.995 141.23 153.441V116.395V93.5078C131.576 99.7254 122.616 106.961 114.506 115.091V229.909C115.263 255.488 124.686 280.05 141.23 299.571V299.571Z" fill="white"/>
</svg>
