<svg width="300" height="300" viewBox="0 0 300 300" fill="none" xmlns="http://www.w3.org/2000/svg">
<path d="M285.562 251.062V283.875H182.438V260.438L201.188 241.688L224.625 265.125L238.688 251.062L252.75 265.125L276.188 241.688L285.562 251.062Z" fill="#B84297"/>
<path d="M285.562 180.75V251.062L276.188 241.688L252.75 265.125L238.688 251.062L224.625 265.125L201.188 241.688L182.438 260.438V237L210.562 208.875L234 232.312L285.562 180.75Z" fill="#C256A4"/>
<path d="M205.875 246.375V283.875H182.438V260.438L201.188 241.688L205.875 246.375Z" fill="#B84297"/>
<path d="M222.281 220.594L205.875 237V246.375L201.188 241.688L182.438 260.438V237L210.562 208.875L222.281 220.594Z" fill="#C256A4"/>
<path d="M285.562 180.75V204.188L257.438 232.312L245.719 220.594L285.562 180.75Z" fill="#C256A4"/>
<path d="M69.9375 190.125H88.6875V265.125H69.9375V190.125Z" fill="#A93D8B"/>
<path d="M32.4375 218.25H51.1875V265.125H32.4375V218.25Z" fill="#A93D8B"/>
<path d="M107.438 171.375H126.188V265.125H107.438V171.375Z" fill="#A93D8B"/>
<path d="M69.9375 190.125H79.3125V265.125H69.9375V190.125Z" fill="#C256A4"/>
<path d="M32.4375 218.25H41.8125V265.125H32.4375V218.25Z" fill="#C256A4"/>
<path d="M107.438 171.375H116.812V265.125H107.438V171.375Z" fill="#C256A4"/>
<path d="M149.426 40.3242C155.676 50.0533 159 61.3736 159 72.9375H98.0625V12C108.312 12.0364 118.388 14.6495 127.363 19.599C136.339 24.5485 143.926 31.6754 149.426 40.3242Z" fill="#53B77D"/>
<path d="M119.906 136.969C114.213 143.352 107.237 148.464 99.4349 151.969C91.6325 155.474 83.1786 157.295 74.625 157.312C41.1973 157.312 13.6875 129.803 13.6875 96.375C13.6875 62.9473 41.1973 35.4375 74.625 35.4375V96.375H135.562C135.545 111.377 129.967 125.84 119.906 136.969Z" fill="#53B77D"/>
<path d="M121.5 16.7461V72.9375H98.0625V12C106.114 11.9941 114.085 13.6082 121.5 16.7461Z" fill="#48AD72"/>
<path d="M86.3555 156.164C82.4924 156.93 78.5633 157.315 74.625 157.312C41.1973 157.312 13.6875 129.803 13.6875 96.375C13.6875 62.9473 41.1973 35.4375 74.625 35.4375V40.1836C52.6875 49.4414 37.125 71.2324 37.125 96.375C37.125 125.801 58.4473 150.645 86.3555 156.164Z" fill="#48AD72"/>
<path d="M138.871 57.5021L132.242 50.8729L155.68 27.4354C156.115 27.0001 156.632 26.6548 157.2 26.4193C157.769 26.1837 158.379 26.0625 158.994 26.0625H196.494V35.4375H160.936L138.871 57.5021Z" fill="#7B70CD"/>
<path d="M196.494 147.937H126.182C125.566 147.937 124.957 147.816 124.388 147.58C123.819 147.344 123.302 146.999 122.867 146.564L99.4297 123.126L106.059 116.497L128.123 138.562H196.494V147.937Z" fill="#7B70CD"/>
<path d="M149.625 288.562H13.6875C12.4443 288.562 11.252 288.069 10.3729 287.19C9.49386 286.31 9 285.118 9 283.875V166.688H18.375V279.188H149.625V288.562Z" fill="#7B70CD"/>
<path d="M205.875 26.0625H243.375V35.4375H205.875V26.0625Z" fill="#A93D8B"/>
<path d="M205.875 44.8125H243.375V54.1875H205.875V44.8125Z" fill="#A93D8B"/>
<path d="M205.875 63.5625H243.375V72.9375H205.875V63.5625Z" fill="#A93D8B"/>
<path d="M252.75 44.8125H290.25V54.1875H252.75V44.8125Z" fill="#A93D8B"/>
<path d="M252.75 63.5625H290.25V72.9375H252.75V63.5625Z" fill="#A93D8B"/>
<path d="M205.875 138.562H243.375V147.938H205.875V138.562Z" fill="#C256A4"/>
<path d="M252.75 138.562H290.25V147.938H252.75V138.562Z" fill="#C256A4"/>
<path d="M205.875 119.812H243.375V129.188H205.875V119.812Z" fill="#C256A4"/>
<path d="M252.75 119.812H290.25V129.188H252.75V119.812Z" fill="#C256A4"/>
<path d="M205.875 101.062H243.375V110.438H205.875V101.062Z" fill="#C256A4"/>
<path d="M252.75 101.062H290.25V110.438H252.75V101.062Z" fill="#C256A4"/>
<path d="M290.25 288.562H163.688C162.444 288.562 161.252 288.069 160.373 287.19C159.494 286.31 159 285.118 159 283.875V166.688H168.375V279.188H290.25V288.562Z" fill="#7B70CD"/>
</svg>
