<svg width="128" height="128" viewBox="0 0 128 128" fill="none" xmlns="http://www.w3.org/2000/svg">
<path d="M63.8997 44.7571C66.1958 44.7571 68.0572 42.9017 68.0572 40.6129C68.0572 38.3242 66.1958 36.4688 63.8997 36.4688C61.6036 36.4688 59.7422 38.3242 59.7422 40.6129C59.7422 42.9017 61.6036 44.7571 63.8997 44.7571Z" fill="#B84297"/>
<path d="M63.8995 16C60.1224 15.9965 56.3941 16.8512 52.998 18.4993V23.8366C56.0238 21.9112 59.5083 20.8214 63.0952 20.6785C66.6821 20.5357 70.2428 21.3451 73.413 23.0238C76.5832 24.7025 79.2492 27.1904 81.1384 30.233C83.0277 33.2757 84.0723 36.7638 84.1655 40.3409V40.3409V55.3536C86.8397 51.6385 88.4341 47.2602 88.7736 42.7003C89.113 38.1404 88.1842 33.5755 86.0894 29.5077C83.9946 25.4398 80.8149 22.0267 76.9 19.6436C72.9851 17.2605 68.4867 15.9997 63.8995 16V16Z" fill="white"/>
<path d="M63.8993 61.0568C58.6928 61.0566 53.6862 59.0584 49.9183 55.4767C46.1504 51.8951 43.9104 47.005 43.6632 41.821H43.6397V26.3672C39.9963 31.4427 38.4015 37.6987 39.1721 43.8923C39.9427 50.0859 43.0224 55.7639 47.7993 59.7985C52.5762 63.8331 58.7009 65.929 64.9566 65.6699C71.2124 65.4108 77.1415 62.8156 81.5661 58.3998V50.7507C79.8047 53.8775 77.2397 56.4804 74.1347 58.2917C71.0298 60.103 67.4969 61.0574 63.8993 61.0568Z" fill="white"/>
<path d="M63.8983 47.223C62.3919 47.2244 60.9286 46.7217 59.7429 45.7955V50.5469C61.9045 51.4331 64.2946 51.6034 66.5606 51.0326C68.8267 50.4618 70.8487 49.1801 72.3284 47.3767C73.8081 45.5733 74.6671 43.3435 74.7787 41.0164C74.8904 38.6893 74.2487 36.388 72.9485 34.452C71.6482 32.5161 69.7581 31.0479 67.557 30.2642C65.356 29.4804 62.9605 29.4226 60.7239 30.0991C58.4874 30.7757 56.5282 32.1509 55.1354 34.0218C53.7425 35.8927 52.9898 38.1603 52.9883 40.4901V54.461C54.2558 55.4557 55.6539 56.2729 57.1437 56.8899V40.4837C57.1437 39.1521 57.5398 37.8503 58.282 36.7431C59.0242 35.6359 60.0792 34.7729 61.3134 34.2633C62.5476 33.7537 63.9058 33.6203 65.216 33.8801C66.5263 34.1399 67.7299 34.7812 68.6745 35.7228C69.6192 36.6644 70.2625 37.8641 70.5231 39.1702C70.7838 40.4762 70.65 41.83 70.1387 43.0603C69.6275 44.2906 68.7617 45.3421 67.651 46.0819C66.5402 46.8218 65.2342 47.2166 63.8983 47.2166V47.223Z" fill="white"/>
<path d="M50.3924 51.9595V40.6136C50.3938 37.7725 51.297 35.0046 52.9728 32.7064C54.6486 30.4082 57.011 28.6975 59.7217 27.8194C62.4325 26.9412 65.3524 26.9406 68.0635 27.8177C70.7746 28.6947 73.1377 30.4044 74.8145 32.7019C76.4912 34.9994 77.3956 37.7669 77.3981 40.6081C77.4006 43.4492 76.5011 46.2183 74.8283 48.5187C73.1556 50.8191 70.7955 52.5329 68.086 53.4147C65.3764 54.2965 62.4564 54.3009 59.7442 53.4275V57.7315C62.8026 58.4696 66.0033 58.3801 69.0154 57.4722C72.0274 56.5643 74.7416 54.871 76.8772 52.5672C79.0127 50.2635 80.4923 47.433 81.1628 44.3683C81.8333 41.3037 81.6705 38.1161 80.6911 35.1352C79.7117 32.1543 77.9514 29.4883 75.592 27.4127C73.2327 25.3371 70.36 23.9274 67.271 23.3292C64.182 22.731 60.9887 22.966 58.0214 24.0101C55.054 25.0541 52.4203 26.8692 50.3924 29.2677V23.5149V19.9609C48.8882 20.9264 47.4922 22.0501 46.2285 23.3125V41.142C46.3465 45.114 47.8147 48.9283 50.3924 51.9595V51.9595Z" fill="white"/>
<path d="M106.687 81.2417C104.419 81.2198 102.196 81.8712 100.3 83.113C98.4051 84.3548 96.9237 86.1307 96.0449 88.2146C95.166 90.2984 94.9294 92.5959 95.3653 94.8142C95.8011 97.0325 96.8897 99.0713 98.4923 100.671C100.095 102.27 102.139 103.358 104.364 103.796C106.589 104.234 108.895 104.001 110.987 103.128C113.079 102.255 114.863 100.781 116.112 98.8944C117.361 97.0074 118.017 94.7926 117.999 92.5323C117.975 89.5481 116.775 86.6928 114.66 84.5811C112.544 82.4695 109.681 81.2703 106.687 81.2417V81.2417ZM106.738 100.47C105.169 100.499 103.626 100.061 102.309 99.2106C100.991 98.3602 99.9593 97.1368 99.3449 95.6974C98.7305 94.2579 98.5618 92.6683 98.8607 91.1327C99.1596 89.5971 99.9123 88.1855 101.022 87.0794C102.132 85.9733 103.548 85.2232 105.089 84.9253C106.63 84.6275 108.225 84.7955 109.669 85.4079C111.113 86.0202 112.341 87.0489 113.194 88.3619C114.047 89.6748 114.487 91.212 114.457 92.7759C114.419 94.8052 113.592 96.7406 112.151 98.1753C110.711 99.61 108.768 100.432 106.732 100.47H106.738Z" fill="white"/>
<path d="M92.686 87.5488H89.0391V104.119H92.686V87.5488Z" fill="white"/>
<path d="M92.686 81.2412H89.0391V84.8759H92.686V81.2412Z" fill="white"/>
<path d="M86.4654 100.698H82.9258V104.226H86.4654V100.698Z" fill="white"/>
<path d="M21.5615 81.2192C19.6871 81.2027 17.8374 81.6447 16.1743 82.5064C14.5112 83.3681 13.0856 84.6231 12.0223 86.1616C10.959 87.7 10.2906 89.4749 10.0756 91.3307C9.86065 93.1865 10.1056 95.0665 10.7892 96.8059C11.4727 98.5454 12.5738 100.091 13.9961 101.308C15.4184 102.525 17.1185 103.375 18.9472 103.785C20.776 104.194 22.6777 104.151 24.4856 103.658C26.2935 103.165 27.9525 102.237 29.3171 100.956V103.025H32.9103V93.1831C32.9194 92.9714 32.9249 92.758 32.9231 92.5427C32.8875 89.5506 31.679 86.691 29.556 84.575C27.4329 82.4591 24.5637 81.2547 21.5615 81.2192ZM21.6109 100.51C20.0366 100.539 18.4894 100.099 17.1681 99.2455C15.8467 98.3921 14.8114 97.1646 14.1953 95.7204C13.5792 94.2763 13.4103 92.6816 13.7103 91.1411C14.0104 89.6006 14.7656 88.1846 15.8791 87.0751C16.9926 85.9656 18.4135 85.2132 19.9593 84.9146C21.505 84.6159 23.1051 84.7846 24.5539 85.399C26.0028 86.0134 27.2343 87.0455 28.0902 88.3626C28.9461 89.6798 29.3874 91.2219 29.3574 92.7908C29.3574 92.8693 29.3574 92.9459 29.3464 93.0225H29.3189V93.4074C29.1239 95.3247 28.2325 97.1047 26.8126 98.4127C25.3927 99.7207 23.5421 100.466 21.609 100.51H21.6109Z" fill="white"/>
<path d="M46.5955 81.2179C43.6275 81.1879 40.7644 82.3107 38.6128 84.3485V74.3877H35.0215V93.0213H35.0416C35.1167 95.2586 35.8497 97.4246 37.1497 99.2502C38.4497 101.076 40.2592 102.48 42.3535 103.289C44.4478 104.099 46.7344 104.276 48.9293 103.801C51.1242 103.326 53.1306 102.218 54.6991 100.616C56.2676 99.0133 57.329 96.9869 57.7516 94.7883C58.1741 92.5897 57.9391 90.3158 57.0758 88.2492C56.2125 86.1826 54.7588 84.4144 52.8956 83.1643C51.0323 81.9143 48.8415 81.2374 46.5955 81.2179V81.2179ZM46.6394 100.508C44.5872 100.547 42.6004 99.7881 41.1003 98.3918C39.6002 96.9955 38.7047 95.0718 38.6037 93.0285V93.0285V92.2277C38.6845 90.6977 39.2118 89.2245 40.1208 87.9889C41.0298 86.7533 42.281 85.8091 43.7208 85.2721C45.1606 84.7352 46.7264 84.6289 48.2259 84.9663C49.7255 85.3036 51.0936 86.07 52.1623 87.1713C53.2311 88.2726 53.954 89.661 54.2422 91.1659C54.5305 92.6709 54.3717 94.227 53.7852 95.6432C53.1987 97.0595 52.2101 98.2742 50.9407 99.1385C49.6713 100.003 48.1764 100.479 46.6394 100.508V100.508Z" fill="white"/>
<path d="M71.6303 81.2181C70.1085 81.2047 68.5994 81.4936 67.1909 82.0678C65.7823 82.642 64.5027 83.4901 63.4266 84.5626C62.3506 85.635 61.4996 86.9104 60.9235 88.3141C60.3473 89.7179 60.0575 91.222 60.0709 92.7387C60.0709 92.8335 60.0709 92.9211 60.0709 93.0214H60.0508V111.657H63.6421V100.912C64.9968 102.191 66.6447 103.121 68.4425 103.621C70.2402 104.121 72.1333 104.176 73.957 103.781C75.7808 103.385 77.48 102.552 78.9067 101.352C80.3335 100.153 81.4446 98.6246 82.1435 96.8997C82.8423 95.1749 83.1077 93.306 82.9165 91.4556C82.7253 89.6052 82.0833 87.8294 81.0464 86.2827C80.0096 84.736 78.6092 83.4653 76.9671 82.581C75.3251 81.6967 73.4911 81.2257 71.6248 81.209L71.6303 81.2181ZM71.6815 100.508C69.6338 100.547 67.6511 99.7914 66.1521 98.4005C64.6531 97.0097 63.755 95.0927 63.6476 93.0543V93.0214C63.6476 92.839 63.6348 92.6693 63.6476 92.4905C63.6788 90.9474 64.1645 89.4475 65.0444 88.1773C65.9243 86.9072 67.1595 85.923 68.5963 85.3471C70.0332 84.7712 71.6082 84.6291 73.1254 84.9385C74.6426 85.2478 76.0351 85.995 77.1295 87.087C78.224 88.179 78.9721 89.5677 79.2808 91.0802C79.5895 92.5926 79.4451 94.1622 78.8656 95.5936C78.2862 97.0249 77.2972 98.2548 76.0218 99.1303C74.7464 100.006 73.2409 100.488 71.6925 100.518L71.6815 100.508Z" fill="white"/>
</svg>
